<svg width="138" height="44" viewBox="0 0 138 44" fill="none" xmlns="http://www.w3.org/2000/svg">
<path d="M118.852 12.125H124.345L121.408 16.9222L124.078 18.5594L127.13 13.5337L130.182 18.5594L132.853 16.9222L129.953 12.125H135.37V9.00305H129.877L132.814 4.16778L130.144 2.53064L127.13 7.5182L124.116 2.53064L121.446 4.16778L124.383 9.00305H118.852V12.125Z" fill="white"/>
<path d="M0 36.2839H135.726V40.8747H0V36.2839Z" fill="white"/>
<path d="M0 28.1564H14.7259V23.74H4.42539V1.50533H0V28.1564Z" fill="white"/>
<path d="M19.4135 28.1564H23.6482V8.66013H19.4135V28.1564Z" fill="white"/>
<path d="M36.4344 28.1564H39.8297V24.0065H37.6933C36.6251 24.0065 35.7858 23.5496 35.7858 22.1409V12.7369H40.5546V8.58691H35.7858V1.39111L31.5893 3.21862V8.58691H27.5454V12.7369H31.5893V23.4735C31.5893 26.7858 33.6876 28.1564 36.4344 28.1564Z" fill="white"/>
<path d="M53.4454 28.461C56.3448 28.461 58.8245 27.395 60.3886 25.6817L57.68 22.6739C56.8026 23.6638 55.3529 24.4253 53.3691 24.4253C50.6986 24.4253 48.257 22.4074 47.9136 19.7804H61.8383V17.8386C61.8383 12.7369 58.4812 8.20618 52.7587 8.20618C47.7992 8.20618 43.6027 12.4323 43.6027 18.2575C43.6027 24.3872 47.9518 28.461 53.4454 28.461ZM57.5656 16.0873H47.9136C48.3714 13.6506 50.3934 12.0516 52.7205 12.0516C55.6962 12.0516 57.2604 13.8791 57.5656 16.0873Z" fill="white"/>
<path d="M66.3767 28.1564H70.5732V17.496C71.0691 14.2217 73.2055 12.8511 75.4564 12.8511C76.4101 12.8511 77.2113 13.0795 77.8598 13.5364L79.8055 9.65295C78.6228 8.7392 77.4783 8.39654 75.7997 8.39654C73.5107 8.39654 71.3743 9.53874 70.5732 11.2139V8.58691H66.3767V28.1564Z" fill="white"/>
<path d="M90.5748 28.5372C92.9019 28.5372 94.4279 27.7757 95.2291 26.6716V28.1564H99.4256V8.58691H95.2291V9.99561C94.3135 8.81535 92.7493 8.24425 90.6892 8.24425C86.0731 8.24425 81.4188 12.2038 81.4188 18.4097C81.4188 24.5395 85.7297 28.5372 90.5748 28.5372ZM91.0326 24.5014C88.1713 24.5014 85.6916 22.0648 85.6916 18.4097C85.6916 14.374 88.5147 12.28 90.9944 12.28C93.0927 12.28 94.4661 13.1557 95.2291 14.4121V22.217C94.4661 23.74 92.9019 24.5014 91.0326 24.5014Z" fill="white"/>
<path d="M105.31 28.1564H109.583V1.50533H105.31V28.1564Z" fill="white"/>
<path d="M23.9757 3.86277C23.9757 5.15273 22.9129 6.21336 21.5917 6.21336C20.2991 6.21336 19.2363 5.15273 19.2363 3.86277C19.2363 2.51549 20.2991 1.48352 21.5917 1.48352C22.9129 1.48352 23.9757 2.51549 23.9757 3.86277Z" fill="white"/>
</svg>
